<svg width="156" height="156" viewBox="0 0 156 156" fill="none" xmlns="http://www.w3.org/2000/svg">
<path opacity="0.4" fill-rule="evenodd" clip-rule="evenodd" d="M1.5 0C0.671573 0 0 0.671573 0 1.5C0 2.32843 0.671573 3 1.5 3C2.32843 3 3 2.32843 3 1.5C3 0.671573 2.32843 0 1.5 0ZM1.5 17C0.671573 17 0 17.6716 0 18.5C0 19.3284 0.671573 20 1.5 20C2.32843 20 3 19.3284 3 18.5C3 17.6716 2.32843 17 1.5 17ZM0 35.5C0 34.6716 0.671573 34 1.5 34C2.32843 34 3 34.6716 3 35.5C3 36.3284 2.32843 37 1.5 37C0.671573 37 0 36.3284 0 35.5ZM1.5 51C0.671573 51 0 51.6716 0 52.5C0 53.3284 0.671573 54 1.5 54C2.32843 54 3 53.3284 3 52.5C3 51.6716 2.32843 51 1.5 51ZM0 69.5C0 68.6716 0.671573 68 1.5 68C2.32843 68 3 68.6716 3 69.5C3 70.3284 2.32843 71 1.5 71C0.671573 71 0 70.3284 0 69.5ZM1.5 85C0.671573 85 0 85.6716 0 86.5C0 87.3284 0.671573 88 1.5 88C2.32843 88 3 87.3284 3 86.5C3 85.6716 2.32843 85 1.5 85ZM0 103.5C0 102.672 0.671573 102 1.5 102C2.32843 102 3 102.672 3 103.5C3 104.328 2.32843 105 1.5 105C0.671573 105 0 104.328 0 103.5ZM1.5 119C0.671573 119 0 119.672 0 120.5C0 121.328 0.671573 122 1.5 122C2.32843 122 3 121.328 3 120.5C3 119.672 2.32843 119 1.5 119ZM0 137.5C0 136.672 0.671573 136 1.5 136C2.32843 136 3 136.672 3 137.5C3 138.328 2.32843 139 1.5 139C0.671573 139 0 138.328 0 137.5ZM1.5 153C0.671573 153 0 153.672 0 154.5C0 155.328 0.671573 156 1.5 156C2.32843 156 3 155.328 3 154.5C3 153.672 2.32843 153 1.5 153ZM17 1.5C17 0.671573 17.6716 0 18.5 0C19.3284 0 20 0.671573 20 1.5C20 2.32843 19.3284 3 18.5 3C17.6716 3 17 2.32843 17 1.5ZM18.5 17C17.6716 17 17 17.6716 17 18.5C17 19.3284 17.6716 20 18.5 20C19.3284 20 20 19.3284 20 18.5C20 17.6716 19.3284 17 18.5 17ZM17 35.5C17 34.6716 17.6716 34 18.5 34C19.3284 34 20 34.6716 20 35.5C20 36.3284 19.3284 37 18.5 37C17.6716 37 17 36.3284 17 35.5ZM18.5 51C17.6716 51 17 51.6716 17 52.5C17 53.3284 17.6716 54 18.5 54C19.3284 54 20 53.3284 20 52.5C20 51.6716 19.3284 51 18.5 51ZM17 69.5C17 68.6716 17.6716 68 18.5 68C19.3284 68 20 68.6716 20 69.5C20 70.3284 19.3284 71 18.5 71C17.6716 71 17 70.3284 17 69.5ZM18.5 85C17.6716 85 17 85.6716 17 86.5C17 87.3284 17.6716 88 18.5 88C19.3284 88 20 87.3284 20 86.5C20 85.6716 19.3284 85 18.5 85ZM17 103.5C17 102.672 17.6716 102 18.5 102C19.3284 102 20 102.672 20 103.5C20 104.328 19.3284 105 18.5 105C17.6716 105 17 104.328 17 103.5ZM18.5 119C17.6716 119 17 119.672 17 120.5C17 121.328 17.6716 122 18.5 122C19.3284 122 20 121.328 20 120.5C20 119.672 19.3284 119 18.5 119ZM17 137.5C17 136.672 17.6716 136 18.5 136C19.3284 136 20 136.672 20 137.5C20 138.328 19.3284 139 18.5 139C17.6716 139 17 138.328 17 137.5ZM18.5 153C17.6716 153 17 153.672 17 154.5C17 155.328 17.6716 156 18.5 156C19.3284 156 20 155.328 20 154.5C20 153.672 19.3284 153 18.5 153ZM34 1.5C34 0.671573 34.6716 0 35.5 0C36.3284 0 37 0.671573 37 1.5C37 2.32843 36.3284 3 35.5 3C34.6716 3 34 2.32843 34 1.5ZM35.5 17C34.6716 17 34 17.6716 34 18.5C34 19.3284 34.6716 20 35.5 20C36.3284 20 37 19.3284 37 18.5C37 17.6716 36.3284 17 35.5 17ZM34 35.5C34 34.6716 34.6716 34 35.5 34C36.3284 34 37 34.6716 37 35.5C37 36.3284 36.3284 37 35.5 37C34.6716 37 34 36.3284 34 35.5ZM35.5 51C34.6716 51 34 51.6716 34 52.5C34 53.3284 34.6716 54 35.5 54C36.3284 54 37 53.3284 37 52.5C37 51.6716 36.3284 51 35.5 51ZM34 69.5C34 68.6716 34.6716 68 35.5 68C36.3284 68 37 68.6716 37 69.5C37 70.3284 36.3284 71 35.5 71C34.6716 71 34 70.3284 34 69.5ZM35.5 85C34.6716 85 34 85.6716 34 86.5C34 87.3284 34.6716 88 35.5 88C36.3284 88 37 87.3284 37 86.5C37 85.6716 36.3284 85 35.5 85ZM34 103.5C34 102.672 34.6716 102 35.5 102C36.3284 102 37 102.672 37 103.5C37 104.328 36.3284 105 35.5 105C34.6716 105 34 104.328 34 103.5ZM35.5 119C34.6716 119 34 119.672 34 120.5C34 121.328 34.6716 122 35.5 122C36.3284 122 37 121.328 37 120.5C37 119.672 36.3284 119 35.5 119ZM34 137.5C34 136.672 34.6716 136 35.5 136C36.3284 136 37 136.672 37 137.5C37 138.328 36.3284 139 35.5 139C34.6716 139 34 138.328 34 137.5ZM35.5 153C34.6716 153 34 153.672 34 154.5C34 155.328 34.6716 156 35.5 156C36.3284 156 37 155.328 37 154.5C37 153.672 36.3284 153 35.5 153ZM51 1.5C51 0.671573 51.6716 0 52.5 0C53.3284 0 54 0.671573 54 1.5C54 2.32843 53.3284 3 52.5 3C51.6716 3 51 2.32843 51 1.5ZM52.5 17C51.6716 17 51 17.6716 51 18.5C51 19.3284 51.6716 20 52.5 20C53.3284 20 54 19.3284 54 18.5C54 17.6716 53.3284 17 52.5 17ZM51 35.5C51 34.6716 51.6716 34 52.5 34C53.3284 34 54 34.6716 54 35.5C54 36.3284 53.3284 37 52.5 37C51.6716 37 51 36.3284 51 35.5ZM52.5 51C51.6716 51 51 51.6716 51 52.5C51 53.3284 51.6716 54 52.5 54C53.3284 54 54 53.3284 54 52.5C54 51.6716 53.3284 51 52.5 51ZM51 69.5C51 68.6716 51.6716 68 52.5 68C53.3284 68 54 68.6716 54 69.5C54 70.3284 53.3284 71 52.5 71C51.6716 71 51 70.3284 51 69.5ZM52.5 85C51.6716 85 51 85.6716 51 86.5C51 87.3284 51.6716 88 52.5 88C53.3284 88 54 87.3284 54 86.5C54 85.6716 53.3284 85 52.5 85ZM51 103.5C51 102.672 51.6716 102 52.5 102C53.3284 102 54 102.672 54 103.5C54 104.328 53.3284 105 52.5 105C51.6716 105 51 104.328 51 103.5ZM52.5 119C51.6716 119 51 119.672 51 120.5C51 121.328 51.6716 122 52.5 122C53.3284 122 54 121.328 54 120.5C54 119.672 53.3284 119 52.5 119ZM51 137.5C51 136.672 51.6716 136 52.5 136C53.3284 136 54 136.672 54 137.5C54 138.328 53.3284 139 52.5 139C51.6716 139 51 138.328 51 137.5ZM52.5 153C51.6716 153 51 153.672 51 154.5C51 155.328 51.6716 156 52.5 156C53.3284 156 54 155.328 54 154.5C54 153.672 53.3284 153 52.5 153ZM68 1.5C68 0.671573 68.6716 0 69.5 0C70.3284 0 71 0.671573 71 1.5C71 2.32843 70.3284 3 69.5 3C68.6716 3 68 2.32843 68 1.5ZM69.5 17C68.6716 17 68 17.6716 68 18.5C68 19.3284 68.6716 20 69.5 20C70.3284 20 71 19.3284 71 18.5C71 17.6716 70.3284 17 69.5 17ZM68 35.5C68 34.6716 68.6716 34 69.5 34C70.3284 34 71 34.6716 71 35.5C71 36.3284 70.3284 37 69.5 37C68.6716 37 68 36.3284 68 35.5ZM69.5 51C68.6716 51 68 51.6716 68 52.5C68 53.3284 68.6716 54 69.5 54C70.3284 54 71 53.3284 71 52.5C71 51.6716 70.3284 51 69.5 51ZM68 69.5C68 68.6716 68.6716 68 69.5 68C70.3284 68 71 68.6716 71 69.5C71 70.3284 70.3284 71 69.5 71C68.6716 71 68 70.3284 68 69.5ZM69.5 85C68.6716 85 68 85.6716 68 86.5C68 87.3284 68.6716 88 69.5 88C70.3284 88 71 87.3284 71 86.5C71 85.6716 70.3284 85 69.5 85ZM68 103.5C68 102.672 68.6716 102 69.5 102C70.3284 102 71 102.672 71 103.5C71 104.328 70.3284 105 69.5 105C68.6716 105 68 104.328 68 103.5ZM69.5 119C68.6716 119 68 119.672 68 120.5C68 121.328 68.6716 122 69.5 122C70.3284 122 71 121.328 71 120.5C71 119.672 70.3284 119 69.5 119ZM68 137.5C68 136.672 68.6716 136 69.5 136C70.3284 136 71 136.672 71 137.5C71 138.328 70.3284 139 69.5 139C68.6716 139 68 138.328 68 137.5ZM69.5 153C68.6716 153 68 153.672 68 154.5C68 155.328 68.6716 156 69.5 156C70.3284 156 71 155.328 71 154.5C71 153.672 70.3284 153 69.5 153ZM85 1.5C85 0.671573 85.6716 0 86.5 0C87.3284 0 88 0.671573 88 1.5C88 2.32843 87.3284 3 86.5 3C85.6716 3 85 2.32843 85 1.5ZM86.5 17C85.6716 17 85 17.6716 85 18.5C85 19.3284 85.6716 20 86.5 20C87.3284 20 88 19.3284 88 18.5C88 17.6716 87.3284 17 86.5 17ZM85 35.5C85 34.6716 85.6716 34 86.5 34C87.3284 34 88 34.6716 88 35.5C88 36.3284 87.3284 37 86.5 37C85.6716 37 85 36.3284 85 35.5ZM86.5 51C85.6716 51 85 51.6716 85 52.5C85 53.3284 85.6716 54 86.5 54C87.3284 54 88 53.3284 88 52.5C88 51.6716 87.3284 51 86.5 51ZM85 69.5C85 68.6716 85.6716 68 86.5 68C87.3284 68 88 68.6716 88 69.5C88 70.3284 87.3284 71 86.5 71C85.6716 71 85 70.3284 85 69.5ZM86.5 85C85.6716 85 85 85.6716 85 86.5C85 87.3284 85.6716 88 86.5 88C87.3284 88 88 87.3284 88 86.5C88 85.6716 87.3284 85 86.5 85ZM85 103.5C85 102.672 85.6716 102 86.5 102C87.3284 102 88 102.672 88 103.5C88 104.328 87.3284 105 86.5 105C85.6716 105 85 104.328 85 103.5ZM86.5 119C85.6716 119 85 119.672 85 120.5C85 121.328 85.6716 122 86.5 122C87.3284 122 88 121.328 88 120.5C88 119.672 87.3284 119 86.5 119ZM85 137.5C85 136.672 85.6716 136 86.5 136C87.3284 136 88 136.672 88 137.5C88 138.328 87.3284 139 86.5 139C85.6716 139 85 138.328 85 137.5ZM86.5 153C85.6716 153 85 153.672 85 154.5C85 155.328 85.6716 156 86.5 156C87.3284 156 88 155.328 88 154.5C88 153.672 87.3284 153 86.5 153ZM102 1.5C102 0.671573 102.672 0 103.5 0C104.328 0 105 0.671573 105 1.5C105 2.32843 104.328 3 103.5 3C102.672 3 102 2.32843 102 1.5ZM103.5 17C102.672 17 102 17.6716 102 18.5C102 19.3284 102.672 20 103.5 20C104.328 20 105 19.3284 105 18.5C105 17.6716 104.328 17 103.5 17ZM102 35.5C102 34.6716 102.672 34 103.5 34C104.328 34 105 34.6716 105 35.5C105 36.3284 104.328 37 103.5 37C102.672 37 102 36.3284 102 35.5ZM103.5 51C102.672 51 102 51.6716 102 52.5C102 53.3284 102.672 54 103.5 54C104.328 54 105 53.3284 105 52.5C105 51.6716 104.328 51 103.5 51ZM102 69.5C102 68.6716 102.672 68 103.5 68C104.328 68 105 68.6716 105 69.5C105 70.3284 104.328 71 103.5 71C102.672 71 102 70.3284 102 69.5ZM103.5 85C102.672 85 102 85.6716 102 86.5C102 87.3284 102.672 88 103.5 88C104.328 88 105 87.3284 105 86.5C105 85.6716 104.328 85 103.5 85ZM102 103.5C102 102.672 102.672 102 103.5 102C104.328 102 105 102.672 105 103.5C105 104.328 104.328 105 103.5 105C102.672 105 102 104.328 102 103.5ZM103.5 119C102.672 119 102 119.672 102 120.5C102 121.328 102.672 122 103.5 122C104.328 122 105 121.328 105 120.5C105 119.672 104.328 119 103.5 119ZM102 137.5C102 136.672 102.672 136 103.5 136C104.328 136 105 136.672 105 137.5C105 138.328 104.328 139 103.5 139C102.672 139 102 138.328 102 137.5ZM103.5 153C102.672 153 102 153.672 102 154.5C102 155.328 102.672 156 103.5 156C104.328 156 105 155.328 105 154.5C105 153.672 104.328 153 103.5 153ZM119 1.5C119 0.671573 119.672 0 120.5 0C121.328 0 122 0.671573 122 1.5C122 2.32843 121.328 3 120.5 3C119.672 3 119 2.32843 119 1.5ZM120.5 17C119.672 17 119 17.6716 119 18.5C119 19.3284 119.672 20 120.5 20C121.328 20 122 19.3284 122 18.5C122 17.6716 121.328 17 120.5 17ZM119 35.5C119 34.6716 119.672 34 120.5 34C121.328 34 122 34.6716 122 35.5C122 36.3284 121.328 37 120.5 37C119.672 37 119 36.3284 119 35.5ZM120.5 51C119.672 51 119 51.6716 119 52.5C119 53.3284 119.672 54 120.5 54C121.328 54 122 53.3284 122 52.5C122 51.6716 121.328 51 120.5 51ZM119 69.5C119 68.6716 119.672 68 120.5 68C121.328 68 122 68.6716 122 69.5C122 70.3284 121.328 71 120.5 71C119.672 71 119 70.3284 119 69.5ZM120.5 85C119.672 85 119 85.6716 119 86.5C119 87.3284 119.672 88 120.5 88C121.328 88 122 87.3284 122 86.5C122 85.6716 121.328 85 120.5 85ZM119 103.5C119 102.672 119.672 102 120.5 102C121.328 102 122 102.672 122 103.5C122 104.328 121.328 105 120.5 105C119.672 105 119 104.328 119 103.5ZM120.5 119C119.672 119 119 119.672 119 120.5C119 121.328 119.672 122 120.5 122C121.328 122 122 121.328 122 120.5C122 119.672 121.328 119 120.5 119ZM119 137.5C119 136.672 119.672 136 120.5 136C121.328 136 122 136.672 122 137.5C122 138.328 121.328 139 120.5 139C119.672 139 119 138.328 119 137.5ZM120.5 153C119.672 153 119 153.672 119 154.5C119 155.328 119.672 156 120.5 156C121.328 156 122 155.328 122 154.5C122 153.672 121.328 153 120.5 153ZM136 1.5C136 0.671573 136.672 0 137.5 0C138.328 0 139 0.671573 139 1.5C139 2.32843 138.328 3 137.5 3C136.672 3 136 2.32843 136 1.5ZM137.5 17C136.672 17 136 17.6716 136 18.5C136 19.3284 136.672 20 137.5 20C138.328 20 139 19.3284 139 18.5C139 17.6716 138.328 17 137.5 17ZM136 35.5C136 34.6716 136.672 34 137.5 34C138.328 34 139 34.6716 139 35.5C139 36.3284 138.328 37 137.5 37C136.672 37 136 36.3284 136 35.5ZM137.5 51C136.672 51 136 51.6716 136 52.5C136 53.3284 136.672 54 137.5 54C138.328 54 139 53.3284 139 52.5C139 51.6716 138.328 51 137.5 51ZM136 69.5C136 68.6716 136.672 68 137.5 68C138.328 68 139 68.6716 139 69.5C139 70.3284 138.328 71 137.5 71C136.672 71 136 70.3284 136 69.5ZM137.5 85C136.672 85 136 85.6716 136 86.5C136 87.3284 136.672 88 137.5 88C138.328 88 139 87.3284 139 86.5C139 85.6716 138.328 85 137.5 85ZM136 103.5C136 102.672 136.672 102 137.5 102C138.328 102 139 102.672 139 103.5C139 104.328 138.328 105 137.5 105C136.672 105 136 104.328 136 103.5ZM137.5 119C136.672 119 136 119.672 136 120.5C136 121.328 136.672 122 137.5 122C138.328 122 139 121.328 139 120.5C139 119.672 138.328 119 137.5 119ZM136 137.5C136 136.672 136.672 136 137.5 136C138.328 136 139 136.672 139 137.5C139 138.328 138.328 139 137.5 139C136.672 139 136 138.328 136 137.5ZM137.5 153C136.672 153 136 153.672 136 154.5C136 155.328 136.672 156 137.5 156C138.328 156 139 155.328 139 154.5C139 153.672 138.328 153 137.5 153ZM153 1.5C153 0.671573 153.672 0 154.5 0C155.328 0 156 0.671573 156 1.5C156 2.32843 155.328 3 154.5 3C153.672 3 153 2.32843 153 1.5ZM154.5 17C153.672 17 153 17.6716 153 18.5C153 19.3284 153.672 20 154.5 20C155.328 20 156 19.3284 156 18.5C156 17.6716 155.328 17 154.5 17ZM153 35.5C153 34.6716 153.672 34 154.5 34C155.328 34 156 34.6716 156 35.5C156 36.3284 155.328 37 154.5 37C153.672 37 153 36.3284 153 35.5ZM154.5 51C153.672 51 153 51.6716 153 52.5C153 53.3284 153.672 54 154.5 54C155.328 54 156 53.3284 156 52.5C156 51.6716 155.328 51 154.5 51ZM153 69.5C153 68.6716 153.672 68 154.5 68C155.328 68 156 68.6716 156 69.5C156 70.3284 155.328 71 154.5 71C153.672 71 153 70.3284 153 69.5ZM154.5 85C153.672 85 153 85.6716 153 86.5C153 87.3284 153.672 88 154.5 88C155.328 88 156 87.3284 156 86.5C156 85.6716 155.328 85 154.5 85ZM153 103.5C153 102.672 153.672 102 154.5 102C155.328 102 156 102.672 156 103.5C156 104.328 155.328 105 154.5 105C153.672 105 153 104.328 153 103.5ZM154.5 119C153.672 119 153 119.672 153 120.5C153 121.328 153.672 122 154.5 122C155.328 122 156 121.328 156 120.5C156 119.672 155.328 119 154.5 119ZM153 137.5C153 136.672 153.672 136 154.5 136C155.328 136 156 136.672 156 137.5C156 138.328 155.328 139 154.5 139C153.672 139 153 138.328 153 137.5ZM154.5 153C153.672 153 153 153.672 153 154.5C153 155.328 153.672 156 154.5 156C155.328 156 156 155.328 156 154.5C156 153.672 155.328 153 154.5 153Z" fill="#6C727C"/>
</svg>
